<?xml version="1.0" encoding="utf-8"?>
<svg viewBox="25.988 -134.981 1437.864 156.829" xmlns="http://www.w3.org/2000/svg">
  <path fill="#1a65a4" fill-opacity="1" d="M 25.988 21.848 L 85.899 18.601 C 145.81 15.109 265.632 8.983 385.454 -14.112 C 505.276 -36.963 625.098 -76.17 744.92 -69.615 C 864.742 -63.305 984.564 -10.621 1104.386 -1.003 C 1224.208 8.983 1344.03 -24.098 1403.941 -40.21 L 1463.852 -56.567 L 1463.852 -134.981 L 1403.941 -134.981 C 1344.03 -134.981 1224.208 -134.981 1104.386 -134.981 C 984.564 -134.981 864.742 -134.981 744.92 -134.981 C 625.098 -134.981 505.276 -134.981 385.454 -134.981 C 265.632 -134.981 145.81 -134.981 85.899 -134.981 L 25.988 -134.981 L 25.988 21.848 Z" style="stroke-miterlimit: 1;"/>
</svg>