<?xml version="1.0" encoding="utf-8"?>
<svg viewBox="0 0 1439.983 148.458" xmlns="http://www.w3.org/2000/svg">
  <path fill="#1a65a4" fill-opacity="1" d="M 0.241 129.567 L 60.241 108.267 C 120.241 86.567 240.241 44.567 360.241 44.267 C 480.241 44.567 600.241 86.567 720.241 81.567 C 840.241 76.567 960.241 22.567 1080.241 6.867 C 1200.241 -9.433 1320.241 12.567 1380.241 22.867 L 1440.241 33.567 L 1440.241 225.567 L 1380.241 225.567 C 1320.241 225.567 1200.241 225.567 1080.241 225.567 C 960.241 225.567 840.241 225.567 720.241 225.567 C 600.241 225.567 480.241 225.567 360.241 225.567 C 240.241 225.567 120.241 225.567 60.241 225.567 L 0.241 225.567 L 0.241 129.567 Z" transform="matrix(1, 0, 0, 1, 1.4210854715202004e-14, 2.842170943040401e-14)"/>
</svg>