<?xml version="1.0" encoding="utf-8"?>
<svg viewBox="0 81.819 1439.723 146.053" xmlns="http://www.w3.org/2000/svg">
  <path fill="#1a65a4" fill-opacity="1" d="M 0.241 129.566 L 60.241 108.266 C 120.241 86.566 240.241 44.566 360.241 44.266 C 480.241 44.566 600.241 86.566 720.241 81.566 C 840.241 76.566 960.241 22.566 1080.241 6.866 C 1200.241 -9.434 1320.241 12.566 1380.241 22.866 L 1440.241 33.566 L 1440.241 225.566 L 1380.241 225.566 C 1320.241 225.566 1200.241 225.566 1080.241 225.566 C 960.241 225.566 840.241 225.566 720.241 225.566 C 600.241 225.566 480.241 225.566 360.241 225.566 C 240.241 225.566 120.241 225.566 60.241 225.566 L 0.241 225.566 L 0.241 129.566 Z" style="transform-origin: 720.241px 113.302px;" transform="matrix(-1, 0, 0, -1, 0.000122070313, 0.000030517578)"/>
</svg>